<svg xmlns="http://www.w3.org/2000/svg" version="1.1" xmlns:xlink="http://www.w3.org/1999/xlink" xmlns:svgjs="http://svgjs.dev/svgjs" width="128" height="128" viewBox="0 0 128 128"><g transform="matrix(0.8046875,0,0,0.8046875,12.760752631578946,13.828508542467063)"><svg viewBox="0 0 95 93" data-background-color="#ffffff" preserveAspectRatio="xMidYMid meet" height="125" width="128" xmlns="http://www.w3.org/2000/svg" xmlns:xlink="http://www.w3.org/1999/xlink"><g id="tight-bounds" transform="matrix(1,0,0,1,-0.24049999999999727,-0.11231578171090462)"><svg viewBox="0 0 95.481 93.22463156342182" height="93.22463156342182" width="95.481"><g><svg viewBox="0 0 95.481 93.22463156342182" height="93.22463156342182" width="95.481"><g><svg viewBox="0 0 95.481 93.22463156342182" height="93.22463156342182" width="95.481"><g id="textblocktransform"><svg viewBox="0 0 95.481 93.22463156342182" height="93.22463156342182" width="95.481" id="textblock"><g><svg viewBox="0 0 95.481 93.22463156342182" height="93.22463156342182" width="95.481"><g><svg viewBox="0 0 95.481 93.22463156342182" height="93.22463156342182" width="95.481"><g><svg xmlns="http://www.w3.org/2000/svg" xmlns:xlink="http://www.w3.org/1999/xlink" version="1.1" x="0" y="0" viewBox="19.1 15.9511111111111 67.80000000000001 66.19777777777779" enable-background="new 0 0 100 100" xml:space="preserve" height="93.22463156342182" width="95.481" class="icon-icon-0" data-fill-palette-color="accent" id="icon-0"><g fill="#016acc" data-fill-palette-color="accent"><g fill="#016acc" data-fill-palette-color="accent"><path d="M86.9 49c0 2.4-4.1 4.4-4.6 6.7-0.5 2.4 2.3 5.9 1.2 8-1 2.2-5.6 2.2-7 4C75 69.6 76 74 74.1 75.5c-1.9 1.5-5.9-0.5-8.1 0.6-2.1 1-3.1 5.4-5.5 6-2.3 0.5-5.1-3-7.5-3-2.4 0-5.3 3.5-7.5 3-2.4-0.5-3.4-4.9-5.5-6-2.2-1-6.2 0.9-8.1-0.6C30 74 31 69.6 29.5 67.8c-1.5-1.9-6-1.9-7-4-1-2.1 1.8-5.7 1.2-8-0.5-2.3-4.6-4.2-4.6-6.7 0-2.4 4.1-4.4 4.6-6.7 0.5-2.4-2.3-5.9-1.2-8 1-2.2 5.6-2.2 7-4 1.5-1.9 0.5-6.3 2.4-7.8 1.9-1.5 5.9 0.5 8.1-0.6 2.1-1 3.1-5.4 5.5-6 2.3-0.5 5.1 3 7.5 3 2.4 0 5.3-3.5 7.5-3 2.4 0.5 3.4 4.9 5.5 6 2.2 1 6.2-0.9 8.1 0.6 1.9 1.5 0.9 5.9 2.4 7.8 1.5 1.9 6 1.9 7 4 1 2.1-1.8 5.7-1.2 8C82.9 44.6 86.9 46.6 86.9 49z" fill="#016acc" data-fill-palette-color="accent"></path></g></g><g fill="#016acc" data-fill-palette-color="accent"><g fill="#016acc" data-fill-palette-color="accent"><path fill="#016acc" d="M50 57.6c-0.5 0-1-0.2-1.4-0.6l-8.5-8.5c-0.8-0.8-0.8-2 0-2.8 0.8-0.8 2-0.8 2.8 0l7.1 7.1 14.5-14.5c0.8-0.8 2-0.8 2.8 0 0.8 0.8 0.8 2 0 2.8L51.5 57C51.1 57.4 50.6 57.6 50 57.6z" data-fill-palette-color="accent"></path></g></g></svg></g></svg></g></svg></g></svg></g></svg></g></svg></g><defs></defs></svg><rect width="95.481" height="93.22463156342182" fill="none" stroke="none" visibility="hidden"></rect></g></svg></g></svg>