<svg viewBox="0 0 395.52 77.41513581316077" height="77.41513581316077" width="395.52" data-background-color="#ffffff" preserveAspectRatio="xMidYMid meet" id="tight-bounds" xmlns="http://www.w3.org/2000/svg" xmlns:xlink="http://www.w3.org/1999/xlink"><g><svg viewBox="0 0 395.52 77.41513581316077" height="77.41513581316077" width="395.52"><g><svg viewBox="0 0 395.52 77.41513581316077" height="77.41513581316077" width="395.52"><g id="textblocktransform"><svg viewBox="0 0 395.52 77.41513581316077" height="77.41513581316077" width="395.52" id="textblock"><g><svg viewBox="0 0 395.52 77.41513581316077" height="77.41513581316077" width="395.52"><g transform="matrix(1,0,0,1,0,0)"><svg width="395.52" viewBox="3.5 -38.79999923706055 203.28860473632812 39.5" height="77.41513581316077" data-palette-color="url(#6bcd1fe7-66c9-4bc5-a228-ea270cbab882)"><g transform="matrix(1,0,0,1,0,0)"><g><svg width="10.344167046154832" viewBox="3.1600000858306885 -36.36000061035156 61.28999710083008 36.36000061035156" height="6.136979753918046" data-palette-color="url(#6bcd1fe7-66c9-4bc5-a228-ea270cbab882)" id="scriptelement" x="194.3020874522156" y="-10.38292011377543"></svg></g></g><g class="wordmark-text-0" data-fill-palette-color="primary" id="text-0"></g></svg></g></svg></g></svg></g></svg></g></svg><mask id="02b6c6cb-0718-4e31-bdd7-778369da74e9"><svg viewBox="0 0 395.52 77.41513581316077" height="77.41513581316077" width="395.52" data-background-color="#ffffff" preserveAspectRatio="xMidYMid meet" id="SvgjsSvg1018" xmlns:xlink="http://www.w3.org/1999/xlink"><g><svg viewBox="0 0 395.52 77.41513581316077" height="77.41513581316077" width="395.52"><g><svg viewBox="0 0 395.52 77.41513581316077" height="77.41513581316077" width="395.52"><g id="SvgjsG1017"><svg viewBox="0 0 395.52 77.41513581316077" height="77.41513581316077" width="395.52" id="SvgjsSvg1016"><g><svg viewBox="0 0 395.52 77.41513581316077" height="77.41513581316077" width="395.52"><g transform="matrix(1,0,0,1,0,0)"><svg width="395.52" viewBox="3.5 -38.79999923706055 203.28860473632812 39.5" height="77.41513581316077" data-palette-color="url(#6bcd1fe7-66c9-4bc5-a228-ea270cbab882)"><g transform="matrix(1,0,0,1,0,0)"><g><svg width="10.344167046154832" viewBox="3.1600000858306885 -36.36000061035156 61.28999710083008 36.36000061035156" height="6.136979753918046" data-palette-color="url(#6bcd1fe7-66c9-4bc5-a228-ea270cbab882)" id="SvgjsSvg1015" x="194.3020874522156" y="-10.38292011377543"><path d="M10.85 0L3.16 0 3.16-36.36 17.51-36.36Q21.63-36.36 24.55-34.9 27.47-33.43 29-30.76 30.54-28.09 30.54-24.49L30.54-24.49Q30.54-20.86 28.98-18.26 27.41-15.66 24.46-14.28 21.5-12.89 17.31-12.89L17.31-12.89 7.71-12.89 7.71-19.07 16.07-19.07Q18.27-19.07 19.73-19.67 21.18-20.28 21.9-21.48 22.62-22.69 22.62-24.49L22.62-24.49Q22.62-26.3 21.9-27.54 21.18-28.78 19.72-29.43 18.25-30.08 16.03-30.08L16.03-30.08 10.85-30.08 10.85 0ZM14.51-16.55L22.8-16.55 31.84 0 23.35 0 14.51-16.55ZM45.72-30.02L34.59-30.02 34.59-36.36 64.45-36.36 64.45-30.02 53.32-30.02 53.32 0 45.72 0 45.72-30.02Z" opacity="1" transform="matrix(1,0,0,1,0,0)" fill="white" class="undefined-123" id="SvgjsPath1014"></path></svg></g></g><path d="M192.16-7.314C192.16-11.354 195.435-14.629 199.474-14.629 203.514-14.629 206.789-11.354 206.789-7.314 206.789-3.275 203.514 0 199.474 0 195.435 0 192.16-3.275 192.16-7.314ZM199.474-0.4C203.293-0.4 206.389-3.496 206.389-7.314 206.389-11.133 203.293-14.229 199.474-14.229 195.655-14.229 192.56-11.133 192.56-7.314 192.56-3.496 195.655-0.4 199.474-0.4Z" fill="white" id="SvgjsPath1013"></path><g class="wordmark-text-0" data-fill-palette-color="primary" id="SvgjsG1012"><path d="M20.6-25.85L19.35-19.7Q18.35-19.95 17-20.23 15.65-20.5 14.1-20.5L14.1-20.5Q13.4-20.5 12.43-20.38 11.45-20.25 10.95-20.1L10.95-20.1 10.95 0 3.5 0 3.5-24.9Q5.5-25.6 8.22-26.23 10.95-26.85 14.3-26.85L14.3-26.85Q14.9-26.85 15.75-26.78 16.6-26.7 17.45-26.58 18.3-26.45 19.15-26.28 20-26.1 20.6-25.85L20.6-25.85ZM23.35-12.95L23.35-12.95Q23.35-16.45 24.42-19.07 25.5-21.7 27.25-23.45 29-25.2 31.27-26.1 33.55-27 35.95-27L35.95-27Q41.55-27 44.8-23.58 48.05-20.15 48.05-13.5L48.05-13.5Q48.05-12.85 48-12.08 47.95-11.3 47.9-10.7L47.9-10.7 31-10.7Q31.25-8.4 33.15-7.05 35.05-5.7 38.25-5.7L38.25-5.7Q40.3-5.7 42.27-6.08 44.25-6.45 45.5-7L45.5-7 46.5-0.95Q45.9-0.65 44.9-0.35 43.9-0.05 42.67 0.18 41.45 0.4 40.05 0.55 38.65 0.7 37.25 0.7L37.25 0.7Q33.7 0.7 31.07-0.35 28.45-1.4 26.72-3.23 25-5.05 24.17-7.55 23.35-10.05 23.35-12.95ZM31-15.8L40.85-15.8Q40.8-16.75 40.52-17.65 40.25-18.55 39.67-19.25 39.1-19.95 38.22-20.4 37.35-20.85 36.05-20.85L36.05-20.85Q34.8-20.85 33.9-20.43 33-20 32.4-19.3 31.8-18.6 31.47-17.68 31.15-16.75 31-15.8L31-15.8ZM69.8-15.1L69.8-15.1Q68.8-11.3 67.67-7.55 66.55-3.8 65.3 0L65.3 0 59.5 0Q58.59-2.1 57.55-5 56.5-7.9 55.37-11.33 54.25-14.75 53.07-18.57 51.9-22.4 50.8-26.3L50.8-26.3 58.65-26.3Q59.05-24.5 59.52-22.38 60-20.25 60.52-18 61.05-15.75 61.62-13.48 62.2-11.2 62.8-9.1L62.8-9.1Q63.45-11.3 64.07-13.6 64.7-15.9 65.27-18.13 65.84-20.35 66.37-22.43 66.9-24.5 67.3-26.3L67.3-26.3 72.7-26.3Q73.09-24.5 73.59-22.43 74.09-20.35 74.65-18.13 75.2-15.9 75.8-13.6 76.4-11.3 77.05-9.1L77.05-9.1Q77.65-11.2 78.25-13.48 78.84-15.75 79.37-18 79.9-20.25 80.37-22.38 80.84-24.5 81.25-26.3L81.25-26.3 89-26.3Q87.9-22.4 86.72-18.57 85.55-14.75 84.42-11.33 83.3-7.9 82.22-5 81.15-2.1 80.25 0L80.25 0 74.45 0Q73.2-3.8 72-7.55 70.8-11.3 69.8-15.1ZM103.04-5.2L103.04-5.2Q104.14-5.2 105.14-5.25 106.14-5.3 106.74-5.4L106.74-5.4 106.74-11.05Q106.29-11.15 105.39-11.25 104.49-11.35 103.74-11.35L103.74-11.35Q102.69-11.35 101.77-11.23 100.84-11.1 100.14-10.75 99.44-10.4 99.04-9.8 98.64-9.2 98.64-8.3L98.64-8.3Q98.64-6.55 99.82-5.88 100.99-5.2 103.04-5.2ZM102.44-27L102.44-27Q105.74-27 107.94-26.25 110.14-25.5 111.47-24.1 112.79-22.7 113.34-20.7 113.89-18.7 113.89-16.25L113.89-16.25 113.89-0.75Q112.29-0.4 109.44 0.08 106.59 0.55 102.54 0.55L102.54 0.55Q99.99 0.55 97.92 0.1 95.84-0.35 94.34-1.38 92.84-2.4 92.04-4.05 91.24-5.7 91.24-8.1L91.24-8.1Q91.24-10.4 92.17-12 93.09-13.6 94.64-14.55 96.19-15.5 98.19-15.93 100.19-16.35 102.34-16.35L102.34-16.35Q103.79-16.35 104.92-16.23 106.04-16.1 106.74-15.9L106.74-15.9 106.74-16.6Q106.74-18.5 105.59-19.65 104.44-20.8 101.59-20.8L101.59-20.8Q99.69-20.8 97.84-20.53 95.99-20.25 94.64-19.75L94.64-19.75 93.69-25.75Q94.34-25.95 95.32-26.18 96.29-26.4 97.44-26.58 98.59-26.75 99.87-26.88 101.14-27 102.44-27ZM137.74-25.85L136.49-19.7Q135.49-19.95 134.14-20.23 132.79-20.5 131.24-20.5L131.24-20.5Q130.54-20.5 129.57-20.38 128.59-20.25 128.09-20.1L128.09-20.1 128.09 0 120.64 0 120.64-24.9Q122.64-25.6 125.37-26.23 128.09-26.85 131.44-26.85L131.44-26.85Q132.04-26.85 132.89-26.78 133.74-26.7 134.59-26.58 135.44-26.45 136.29-26.28 137.14-26.1 137.74-25.85L137.74-25.85ZM148.09-13.35L148.09-13.35Q148.09-9.9 149.64-7.8 151.19-5.7 154.24-5.7L154.24-5.7Q155.24-5.7 156.09-5.78 156.94-5.85 157.49-5.95L157.49-5.95 157.49-19.5Q156.79-19.95 155.66-20.25 154.54-20.55 153.39-20.55L153.39-20.55Q148.09-20.55 148.09-13.35ZM164.94-38.8L164.94-0.85Q163.94-0.55 162.64-0.28 161.34 0 159.91 0.2 158.49 0.4 157.01 0.53 155.54 0.65 154.19 0.65L154.19 0.65Q150.94 0.65 148.39-0.3 145.84-1.25 144.09-3.03 142.34-4.8 141.41-7.33 140.49-9.85 140.49-13L140.49-13Q140.49-16.2 141.29-18.78 142.09-21.35 143.59-23.15 145.09-24.95 147.26-25.9 149.44-26.85 152.24-26.85L152.24-26.85Q153.79-26.85 155.01-26.55 156.24-26.25 157.49-25.7L157.49-25.7 157.49-37.6 164.94-38.8ZM171.69-10.75L171.69-32.85 179.13-34.05 179.13-26.3 188.09-26.3 188.09-20.1 179.13-20.1 179.13-10.85Q179.13-8.5 179.96-7.1 180.78-5.7 183.28-5.7L183.28-5.7Q184.49-5.7 185.76-5.93 187.03-6.15 188.09-6.55L188.09-6.55 189.13-0.75Q187.78-0.2 186.13 0.2 184.49 0.6 182.09 0.6L182.09 0.6Q179.03 0.6 177.03-0.23 175.03-1.05 173.84-2.53 172.63-4 172.16-6.1 171.69-8.2 171.69-10.75L171.69-10.75Z" fill="white"></path></g></svg></g></svg></g></svg></g></svg></g></svg></g><defs><mask></mask></defs></svg></mask><linearGradient x1="0" x2="1" y1="0.578" y2="0.595" id="6bcd1fe7-66c9-4bc5-a228-ea270cbab882"><stop stop-color="#6ee2f5" offset="0"></stop><stop stop-color="#6454f0" offset="1"></stop></linearGradient><rect width="395.52" height="77.41513581316077" fill="url(#6bcd1fe7-66c9-4bc5-a228-ea270cbab882)" mask="url(#02b6c6cb-0718-4e31-bdd7-778369da74e9)" data-fill-palette-color="primary"></rect></g><defs></defs></svg>